# xmcd CD database file generated by LOLA_Freedb v0.9beta0
# 
# Track frame offsets:
#      150
#      14697
#      30560
#      47273
#      61823
#      77631
#      95354
#      114456
#      129177
#      146507
#      157508
#      171382
#      183825
#      199309
# 
# Disc length: 2839 seconds
# 
# Revision: 0 
# Processed by: cddbd v1.5.2PL0 Copyright (c) Steve Scherf et al.
# Submitted via: LOLA_Freedb v0.9beta0
# 
DISCID=a70b150e
DTITLE=The BossHoss - Stallion Battalion
DYEAR=2007
DGENRE=
TTITLE0=The BossHoss - Stallion Battalion
TTITLE1=
TTITLE2=
TTITLE3=
TTITLE4=
TTITLE5=
TTITLE6=
TTITLE7=
TTITLE8=
TTITLE9=
TTITLE10=
TTITLE11=
TTITLE12=
TTITLE13=
EXTD=
EXTT0=
EXTT1=
EXTT2=
EXTT3=
EXTT4=
EXTT5=
EXTT6=
EXTT7=
EXTT8=
EXTT9=
EXTT10=
EXTT11=
EXTT12=
EXTT13=
PLAYORDER=
